<svg xmlns="http://www.w3.org/2000/svg" viewBox="0 0 640 280" width="640" height="280" role="img" aria-label="Premium at k=29 by consumer model">
<style>
.t1{fill:#1f2328}.t2{fill:#59636e}.grid{stroke:#d1d9e0}.zero{stroke:#59636e}
.s1{fill:#0072B2;stroke:#0072B2}.s2{fill:#D55E00;stroke:#D55E00}
@media (prefers-color-scheme: dark){
.t1{fill:#e6edf3}.t2{fill:#9198a1}.grid{stroke:#3d444d}.zero{stroke:#9198a1}
.s1{fill:#3987e5;stroke:#3987e5}.s2{fill:#d95926;stroke:#d95926}}
text{font-family:-apple-system,BlinkMacSystemFont,"Segoe UI",Helvetica,Arial,sans-serif}
</style>
<text class="t1" x="110" y="20" font-size="14" font-weight="600">Cost premium π on Sonnet's code at k = 29, 90% interval</text>
<circle class="s1" cx="116" cy="38" r="5"/><text class="t2" x="126" y="42" font-size="12">vs. maintained by Sonnet</text><rect class="s2" x="300" y="33" width="10" height="10"/><text class="t2" x="316" y="42" font-size="12">vs. maintained by the model itself</text>
<line class="grid" x1="110.0" x2="110.0" y1="56" y2="232" stroke-width="1"/>
<text class="t2" x="110.0" y="250" font-size="12" text-anchor="middle">-30%</text>
<line class="grid" x1="194.3" x2="194.3" y1="56" y2="232" stroke-width="1"/>
<text class="t2" x="194.3" y="250" font-size="12" text-anchor="middle">-20%</text>
<line class="grid" x1="278.7" x2="278.7" y1="56" y2="232" stroke-width="1"/>
<text class="t2" x="278.7" y="250" font-size="12" text-anchor="middle">-10%</text>
<line class="zero" x1="363.0" x2="363.0" y1="56" y2="232" stroke-width="1" stroke-dasharray="4 3"/>
<text class="t2" x="363.0" y="250" font-size="12" text-anchor="middle">+0%</text>
<line class="grid" x1="447.3" x2="447.3" y1="56" y2="232" stroke-width="1"/>
<text class="t2" x="447.3" y="250" font-size="12" text-anchor="middle">+10%</text>
<line class="grid" x1="531.7" x2="531.7" y1="56" y2="232" stroke-width="1"/>
<text class="t2" x="531.7" y="250" font-size="12" text-anchor="middle">+20%</text>
<line class="grid" x1="616.0" x2="616.0" y1="56" y2="232" stroke-width="1"/>
<text class="t2" x="616.0" y="250" font-size="12" text-anchor="middle">+30%</text>
<text class="t1" x="98" y="82.0" font-size="13" text-anchor="end">Haiku 5.5</text>
<line class="s1" x1="281.9" x2="549.1" y1="71.0" y2="71.0" stroke-width="2"/>
<circle class="s1" cx="405.4" cy="71.0" r="5"><title>Haiku 5.5, vs. Sonnet-maintained: +5.0% [-9.6%, +22.1%]</title></circle>
<line class="s2" x1="205.8" x2="401.6" y1="85.0" y2="85.0" stroke-width="2"/>
<rect class="s2" x="293.6" y="80.0" width="10" height="10"><title>Haiku 5.5, vs. self-maintained: -7.6% [-18.6%, +4.6%]</title></rect>
<text class="t1" x="98" y="126.0" font-size="13" text-anchor="end">Sonnet 5.5</text>
<line class="s1" x1="359.4" x2="457.9" y1="115.0" y2="115.0" stroke-width="2"/>
<circle class="s1" cx="410.7" cy="115.0" r="5"><title>Sonnet 5.5, vs. Sonnet-maintained: +5.7% [-0.4%, +11.3%]</title></circle>
<text class="t1" x="98" y="170.0" font-size="13" text-anchor="end">Opus 5.5</text>
<line class="s1" x1="226.3" x2="310.5" y1="159.0" y2="159.0" stroke-width="2"/>
<circle class="s1" cx="266.7" cy="159.0" r="5"><title>Opus 5.5, vs. Sonnet-maintained: -11.4% [-16.2%, -6.2%]</title></circle>
<line class="s2" x1="185.2" x2="286.7" y1="173.0" y2="173.0" stroke-width="2"/>
<rect class="s2" x="226.8" y="168.0" width="10" height="10"><title>Opus 5.5, vs. self-maintained: -15.6% [-21.1%, -9.0%]</title></rect>
<text class="t1" x="98" y="214.0" font-size="13" text-anchor="end">Fable 5.1</text>
<line class="s1" x1="203.4" x2="329.5" y1="203.0" y2="203.0" stroke-width="2"/>
<circle class="s1" cx="265.7" cy="203.0" r="5"><title>Fable 5.1, vs. Sonnet-maintained: -11.5% [-18.9%, -4.0%]</title></circle>
<text class="t2" x="363.0" y="274" font-size="12" text-anchor="middle">π &gt; 0: unmaintained code costs more; π &lt; 0: maintained code costs more</text>
</svg>
